<svg width="100" height="28" fill="none" xmlns="http://www.w3.org/2000/svg"><g clip-path="url(#a)"><path d="m25.543 18.772-1.29-8.937c-.332-2.298-2.332-4.002-4.688-4.002H8.842c-2.356 0-4.356 1.704-4.688 4.002l-1.29 8.937c-.26 1.796 1.148 3.395 2.983 3.395.805 0 1.562-.315 2.13-.875l2.675-2.625h7.102l2.664 2.625c.568.56 1.337.875 2.13.875 1.847 0 3.255-1.599 2.995-3.395ZM13.02 12.833h-2.367v2.334H9.469v-2.334H7.102v-1.166h2.367V9.333h1.184v2.334h2.367v1.166Zm4.734-1.166a1.179 1.179 0 0 1-1.183-1.167c0-.642.532-1.167 1.183-1.167s1.184.525 1.184 1.167-.533 1.167-1.184 1.167Zm2.368 3.5A1.179 1.179 0 0 1 18.938 14c0-.642.533-1.167 1.184-1.167.65 0 1.183.525 1.183 1.167s-.532 1.167-1.183 1.167Z" fill="#2A7AE4"/></g><path d="M72.773 17.92c-.805.793-1.742 1.19-2.813 1.19-.662 0-1.287-.13-1.874-.392a4.827 4.827 0 0 1-1.52-1.078 5.339 5.339 0 0 1-1.023-1.61 5.453 5.453 0 0 1-.37-2.016c0-.681.124-1.32.37-1.918a5.066 5.066 0 0 1 1.037-1.582 4.902 4.902 0 0 1 1.562-1.078 4.654 4.654 0 0 1 1.946-.406c.947 0 1.757.196 2.43.588.68.392 1.192.92 1.533 1.582l-1.463 1.064a2.679 2.679 0 0 0-1.08-1.134 2.94 2.94 0 0 0-1.49-.392c-.427 0-.82.089-1.18.266-.35.177-.653.42-.909.728-.246.308-.44.663-.582 1.064a4.035 4.035 0 0 0-.199 1.274c0 .467.076.905.227 1.316.152.401.36.751.625 1.05.266.299.578.537.938.714.37.168.767.252 1.193.252.975 0 1.856-.453 2.642-1.358v-.7h-2.031V13.93h3.65v5.11h-1.62v-1.12ZM79.33 19.18a4.27 4.27 0 0 1-1.62-.294 3.806 3.806 0 0 1-1.235-.826 3.723 3.723 0 0 1-.796-1.204 3.902 3.902 0 0 1-.27-1.442c0-.523.09-1.013.27-1.47.18-.467.44-.873.781-1.218.341-.355.753-.635 1.236-.84a4.243 4.243 0 0 1 1.648-.308c.606 0 1.145.103 1.619.308.483.205.89.48 1.221.826.341.345.597.747.767 1.204a3.866 3.866 0 0 1 .256 1.778c0 .112-.01.205-.028.28h-5.753c.028.29.1.546.213.77a1.906 1.906 0 0 0 1.051.938c.228.084.464.126.71.126.38 0 .734-.089 1.066-.266.34-.187.573-.43.696-.728l1.633.448c-.275.56-.715 1.022-1.32 1.386-.597.355-1.312.532-2.146.532Zm1.931-4.424c-.047-.55-.255-.99-.625-1.316-.36-.336-.8-.504-1.32-.504-.257 0-.498.047-.725.14a1.793 1.793 0 0 0-.582.364c-.171.159-.313.35-.427.574a2.089 2.089 0 0 0-.184.742h3.863ZM87.832 19.18a4.27 4.27 0 0 1-1.619-.294 3.806 3.806 0 0 1-1.236-.826 3.724 3.724 0 0 1-.795-1.204 3.904 3.904 0 0 1-.27-1.442c0-.523.09-1.013.27-1.47.18-.467.44-.873.781-1.218.341-.355.753-.635 1.236-.84a4.243 4.243 0 0 1 1.647-.308c.606 0 1.146.103 1.62.308.483.205.89.48 1.221.826.341.345.597.747.767 1.204a3.866 3.866 0 0 1 .256 1.778c0 .112-.01.205-.028.28h-5.753c.028.29.1.546.213.77a1.906 1.906 0 0 0 1.051.938c.227.084.464.126.71.126.379 0 .734-.089 1.066-.266.34-.187.572-.43.696-.728l1.633.448c-.275.56-.715 1.022-1.321 1.386-.597.355-1.312.532-2.145.532Zm1.932-4.424c-.047-.55-.256-.99-.625-1.316-.36-.336-.8-.504-1.321-.504a1.89 1.89 0 0 0-.724.14 1.794 1.794 0 0 0-.583.364 2.03 2.03 0 0 0-.426.574 2.09 2.09 0 0 0-.184.742h3.863ZM97.969 19.04l-2.16-3.178-1.022.994v2.184h-1.903V8.82h1.903v6.202l2.983-3.304h2.03l-2.769 3.108L100 19.04h-2.031Z" fill="#464646"/><path d="M32.256 9.1h1.733l3.835 9.94h-2.017l-.937-2.478h-3.523l-.923 2.478h-2.017l3.85-9.94Zm2.259 6.104-1.392-3.906-1.449 3.906h2.84ZM38.732 8.82h1.903v7.868c0 .27.066.48.199.63.132.15.322.224.568.224.114 0 .237-.019.37-.056.141-.037.274-.084.397-.14l.256 1.428a3.718 3.718 0 0 1-.895.28c-.341.065-.649.098-.924.098-.596 0-1.06-.154-1.392-.462-.322-.317-.482-.765-.482-1.344V8.82ZM45.526 19.18c-.767 0-1.349-.243-1.747-.728-.397-.485-.596-1.204-.596-2.156v-4.592h1.903v4.186c0 1.13.412 1.694 1.236 1.694.37 0 .724-.107 1.065-.322.35-.224.635-.56.852-1.008v-4.55h1.904v5.18c0 .196.033.336.099.42.076.084.194.13.355.14v1.596a4.023 4.023 0 0 1-.824.084c-.34 0-.62-.075-.838-.224a.94.94 0 0 1-.369-.644l-.043-.588a3.156 3.156 0 0 1-1.278 1.134 3.893 3.893 0 0 1-1.719.378ZM56.466 13.328a3.726 3.726 0 0 0-1.549.336c-.454.205-.78.518-.98.938v4.438h-1.903v-7.336h1.747v1.568c.133-.252.289-.476.469-.672.18-.205.374-.383.582-.532.209-.15.417-.261.625-.336.218-.084.426-.126.625-.126h.227c.057 0 .11.005.157.014v1.708ZM59.46 19.18c-.359 0-.695-.056-1.008-.168a2.593 2.593 0 0 1-.81-.49 2.462 2.462 0 0 1-.539-.742 2.27 2.27 0 0 1-.184-.924c0-.345.075-.663.227-.952.16-.299.379-.55.653-.756.284-.205.62-.364 1.009-.476a4.27 4.27 0 0 1 1.278-.182c.331 0 .653.028.966.084.322.056.606.135.852.238v-.42c0-.485-.142-.859-.426-1.12-.275-.261-.687-.392-1.236-.392-.398 0-.786.07-1.165.21-.378.14-.767.345-1.164.616l-.583-1.19a5.552 5.552 0 0 1 3.097-.938c1.07 0 1.898.261 2.485.784.597.513.895 1.26.895 2.24v2.282c0 .196.033.336.1.42.076.084.194.13.355.14v1.596a4.299 4.299 0 0 1-.838.098c-.36 0-.64-.08-.838-.238a1.033 1.033 0 0 1-.355-.63l-.043-.406c-.331.43-.734.756-1.207.98-.474.224-.98.336-1.52.336Zm.54-1.372c.323 0 .626-.056.91-.168.293-.112.52-.261.682-.448.208-.159.312-.336.312-.532v-.84a4.26 4.26 0 0 0-.739-.196 3.71 3.71 0 0 0-.767-.084c-.492 0-.895.112-1.207.336-.312.215-.469.49-.469.826 0 .317.123.583.37.798.246.205.549.308.909.308Z" fill="#2A7AE4"/><defs><clipPath id="a"><path fill="#fff" d="M0 0h28.407v28H0z"/></clipPath></defs></svg>